<svg width="999" height="365" viewBox="0 0 999 365" fill="none" xmlns="http://www.w3.org/2000/svg">
<rect width="999" height="365" fill="white"/>
<path d="M259.849 123.477L53.8486 65.7782C50.6602 64.8851 47.5 67.2818 47.5 70.5929V192.808C47.5 195.002 48.9312 196.941 51.0288 197.586L257.029 261.008C260.244 261.998 263.5 259.593 263.5 256.229V128.292C263.5 126.05 262.008 124.082 259.849 123.477Z" fill="url(#paint0_linear_281_2)"/>
<path d="M136.5 236.5V226.5L180.5 240.5V250L136.5 236.5Z" fill="url(#paint1_linear_281_2)"/>
<path d="M209.825 262.019L122.098 235.433C121.166 235.151 120.17 235.147 119.235 235.422L71.4096 249.51C66.7025 250.897 66.6012 257.528 71.2638 259.057L154.968 286.52C155.922 286.833 156.948 286.851 157.913 286.573L209.761 271.608C214.546 270.227 214.591 263.463 209.825 262.019Z" fill="url(#paint2_linear_281_2)"/>
<path d="M316.004 246.943C315.418 252.803 312.195 255.977 306.336 256.465C303.602 256.465 301.209 255.586 299.158 253.828C297.205 251.973 296.229 249.678 296.229 246.943V177.803C296.326 175.068 297.352 172.822 299.305 171.064C301.258 169.209 303.602 168.281 306.336 168.281H367.859C376.453 168.574 382.947 170.479 387.342 173.994C391.736 177.412 394.91 181.318 396.863 185.713C398.816 190.107 399.793 194.551 399.793 199.043C399.793 203.73 398.816 208.271 396.863 212.666C395.008 217.061 391.834 221.016 387.342 224.531C382.947 227.949 377.332 229.609 370.496 229.512H333.582C330.848 229.512 328.553 228.535 326.697 226.582C324.744 224.727 323.768 222.432 323.768 219.697C323.768 216.963 324.695 214.668 326.551 212.812C328.504 210.859 330.848 209.883 333.582 209.883H371.375C373.23 209.883 374.744 209.297 375.916 208.125C377.186 206.855 378.113 205.439 378.699 203.877C379.285 202.217 379.578 200.557 379.578 198.896C379.578 197.334 379.285 195.771 378.699 194.209C378.113 192.549 377.186 191.133 375.916 189.961C374.744 188.691 373.23 188.008 371.375 187.91H319.812C317.273 188.008 316.004 189.277 316.004 191.719V246.943ZM448.719 187.91C445.008 188.105 441.883 189.521 439.344 192.158C436.902 194.795 435.145 197.822 434.07 201.24C432.996 204.561 432.459 207.979 432.459 211.494C432.459 215.01 432.947 218.477 433.924 221.895C434.998 225.312 436.805 228.34 439.344 230.977C441.883 233.516 445.008 234.883 448.719 235.078H497.059C503.211 235.664 506.58 239.033 507.166 245.186C507.068 247.92 506.043 250.215 504.09 252.07C502.137 253.828 499.793 254.707 497.059 254.707H450.33H443.592C436.756 254.316 431.141 251.729 426.746 246.943C422.352 242.061 419.178 236.543 417.225 230.391C415.369 224.238 414.441 217.939 414.441 211.494C414.441 206.709 414.979 201.973 416.053 197.285C417.127 192.598 418.787 188.154 421.033 183.955C423.377 179.658 426.453 175.996 430.262 172.969C434.168 169.941 438.611 168.379 443.592 168.281H446.375H497.059C503.211 168.867 506.58 172.236 507.166 178.389C507.166 181.123 506.141 183.418 504.09 185.273C502.137 187.031 499.793 187.91 497.059 187.91H448.719ZM615.418 178.096C615.418 180.83 614.441 183.125 612.488 184.98C610.633 186.934 608.338 187.91 605.604 187.91H547.01C545.154 188.008 543.592 188.447 542.322 189.229C541.15 189.912 540.271 190.742 539.686 191.719C539.1 192.598 538.807 193.525 538.807 194.502C538.807 195.479 539.1 196.455 539.686 197.432C540.271 198.311 541.15 199.141 542.322 199.922C543.592 200.605 545.154 200.996 547.01 201.094H588.611C595.447 201.289 601.062 202.9 605.457 205.928C609.949 208.857 613.123 212.275 614.979 216.182C616.932 219.99 617.908 223.896 617.908 227.9C617.908 231.807 616.932 235.713 614.979 239.619C613.025 243.428 609.852 246.846 605.457 249.873C601.062 252.803 595.447 254.268 588.611 254.268H587.732C587.146 254.365 586.561 254.414 585.975 254.414H530.604C527.869 254.414 525.525 253.486 523.572 251.631C521.717 249.678 520.789 247.334 520.789 244.6C520.789 241.865 521.766 239.57 523.719 237.715C525.574 235.762 527.869 234.785 530.604 234.785H589.49C591.346 234.883 592.859 234.541 594.031 233.76C595.301 232.979 596.229 232.1 596.814 231.123C597.4 230.049 597.693 228.975 597.693 227.9C597.693 227.217 597.4 226.289 596.814 225.117C596.229 223.848 595.301 222.822 594.031 222.041C592.859 221.26 591.346 220.82 589.49 220.723H547.889C541.053 220.527 535.389 218.965 530.896 216.035C526.502 213.105 523.328 209.785 521.375 206.074C519.52 202.266 518.592 198.408 518.592 194.502C518.592 190.693 519.568 186.934 521.521 183.223C523.475 179.414 526.648 176.045 531.043 173.115C535.438 170.186 541.053 168.623 547.889 168.428H548.768C549.354 168.33 549.939 168.281 550.525 168.281H605.604C608.338 168.281 610.633 169.258 612.488 171.211C614.441 173.066 615.418 175.361 615.418 178.096ZM644.422 165.938C647.059 166.035 649.305 167.012 651.16 168.867C653.016 170.625 653.992 172.822 654.09 175.459V199.922H701.697V175.459C701.795 172.725 702.82 170.479 704.773 168.721C706.727 166.865 709.07 165.938 711.805 165.938C714.441 166.035 716.688 167.012 718.543 168.867C720.398 170.625 721.375 172.822 721.473 175.459V247.236C720.887 253.096 717.664 256.27 711.805 256.758C709.07 256.758 706.678 255.879 704.627 254.121C702.674 252.266 701.697 249.971 701.697 247.236V219.551H654.09V247.236C653.504 253.096 650.281 256.27 644.422 256.758C641.688 256.758 639.295 255.879 637.244 254.121C635.291 252.266 634.314 249.971 634.314 247.236V175.459C634.412 172.725 635.438 170.479 637.391 168.721C639.344 166.865 641.688 165.938 644.422 165.938ZM818.299 168.281C823.279 168.379 827.723 169.941 831.629 172.969C835.535 175.996 838.66 179.609 841.004 183.809C843.445 188.008 845.252 192.451 846.424 197.139C847.596 201.826 848.182 206.611 848.182 211.494C848.182 217.939 847.156 224.287 845.105 230.537C843.152 236.689 839.881 242.158 835.291 246.943C830.799 251.729 825.135 254.316 818.299 254.707H767.176C760.34 254.414 754.627 251.875 750.037 247.09C745.447 242.305 742.176 236.787 740.223 230.537C738.367 224.287 737.439 217.939 737.439 211.494C737.439 205.049 738.416 198.75 740.369 192.598C742.322 186.348 745.545 180.83 750.037 176.045C754.627 171.162 760.34 168.574 767.176 168.281H769.959H815.516H818.299ZM813.318 235.078C817.029 234.883 820.105 233.516 822.547 230.977C825.086 228.34 826.893 225.312 827.967 221.895C829.041 218.477 829.578 215.01 829.578 211.494C829.578 207.979 828.992 204.561 827.82 201.24C826.746 197.822 824.988 194.795 822.547 192.158C820.105 189.521 817.029 188.105 813.318 187.91H771.717C768.006 188.105 764.93 189.521 762.488 192.158C760.047 194.795 758.24 197.822 757.068 201.24C755.994 204.561 755.457 207.979 755.457 211.494C755.457 215.01 755.994 218.477 757.068 221.895C758.143 225.312 759.9 228.34 762.342 230.977C764.881 233.516 768.006 234.883 771.717 235.078H813.318ZM883.924 246.943C883.338 252.803 880.115 255.977 874.256 256.465C871.521 256.465 869.129 255.586 867.078 253.828C865.125 251.973 864.148 249.678 864.148 246.943V177.803C864.246 175.068 865.271 172.822 867.225 171.064C869.178 169.209 871.521 168.281 874.256 168.281H935.779C944.373 168.574 950.867 170.479 955.262 173.994C959.656 177.412 962.83 181.318 964.783 185.713C966.736 190.107 967.713 194.551 967.713 199.043C967.713 203.73 966.736 208.271 964.783 212.666C962.928 217.061 959.754 221.016 955.262 224.531C950.867 227.949 945.252 229.609 938.416 229.512H901.502C898.768 229.512 896.473 228.535 894.617 226.582C892.664 224.727 891.688 222.432 891.688 219.697C891.688 216.963 892.615 214.668 894.471 212.812C896.424 210.859 898.768 209.883 901.502 209.883H939.295C941.15 209.883 942.664 209.297 943.836 208.125C945.105 206.855 946.033 205.439 946.619 203.877C947.205 202.217 947.498 200.557 947.498 198.896C947.498 197.334 947.205 195.771 946.619 194.209C946.033 192.549 945.105 191.133 943.836 189.961C942.664 188.691 941.15 188.008 939.295 187.91H887.732C885.193 188.008 883.924 189.277 883.924 191.719V246.943Z" fill="url(#paint3_linear_281_2)"/>
<defs>
<linearGradient id="paint0_linear_281_2" x1="155.5" y1="64" x2="155.5" y2="263" gradientUnits="userSpaceOnUse">
<stop stop-color="#1D4ED8"/>
<stop offset="1" stop-color="#60A5FA"/>
</linearGradient>
<linearGradient id="paint1_linear_281_2" x1="158.5" y1="226.5" x2="158.5" y2="250" gradientUnits="userSpaceOnUse">
<stop stop-color="#1D4ED8"/>
<stop offset="1" stop-color="#60A5FA"/>
</linearGradient>
<linearGradient id="paint2_linear_281_2" x1="141" y1="235" x2="141" y2="287" gradientUnits="userSpaceOnUse">
<stop stop-color="#1D4ED8"/>
<stop offset="1" stop-color="#60A5FA"/>
</linearGradient>
<linearGradient id="paint3_linear_281_2" x1="308.188" y1="160.649" x2="930.618" y2="362.145" gradientUnits="userSpaceOnUse">
<stop stop-color="#1D4ED8"/>
<stop offset="1" stop-color="#60A5FA"/>
</linearGradient>
</defs>
</svg>
